<?xml version="1.0" encoding="UTF-8"?>
<svg id="Layer_2" data-name="Layer 2" xmlns="http://www.w3.org/2000/svg" viewBox="0 0 86.94455 30.83279">
  <defs>
    <style>
      .cls-1 {
        fill: #fc3;
      }
    </style>
  </defs>
  <g id="Layer_1-2" data-name="Layer 1">
    <g>
      <path d="M38.32248,10.86892c0,2.04883-1.55273,3.02539-3.02441,3.2334-.56055.06445-.91309.06445-1.53711.06445h-4.01758V3.12185h3.95312c.56055,0,.88086,0,1.4248.06445,1.79297.22363,2.78516,1.26465,2.78516,2.75293,0,1.13672-.6084,1.88867-1.71289,2.27246,1.4248.36816,2.12891,1.2334,2.12891,2.65723ZM31.95236,7.65212h1.66504c.27148,0,.52734-.0166.78418-.04785.7998-.12891,1.2002-.57617,1.2002-1.37695,0-.83203-.5127-1.23242-1.24805-1.32812-.25684-.03223-.54492-.04883-.80078-.04883h-1.60059v2.80176ZM36.00217,10.88552c0-1.02441-.62402-1.45703-1.4248-1.53711-.27246-.03223-.52832-.04785-.78418-.04785h-1.84082v3.12109h1.9209c.25586,0,.52832,0,.73633-.01562.76855-.06445,1.39258-.59277,1.39258-1.52051Z"/>
      <path d="M44.14474,12.91775l-.41602.91309c-.59277.39941-1.3125.55957-2.11328.55957-1.47266,0-2.73633-.86426-2.73633-2.48047,0-1.87305,1.60059-2.92969,4.68945-2.92969h.54395v-.17578c0-.25586,0-.5127-.03223-.80078-.06348-.5918-.44824-1.02441-1.3125-1.02441-.87988,0-1.36035.5127-1.42383,1.44141l-2.14551.01562c.06445-1.9209,1.61719-3.00977,3.64941-3.00977,2.38477,0,3.28125,1.04102,3.40918,2.51367.03223.40039.04883.84766.04883,1.3125v2.75293c0,.64062.03125,1.2168.16016,2.16113h-2.16113l-.16016-1.24902ZM44.11252,11.02908v-.68848c-1.76074-.12793-2.94531.27246-2.94531,1.39258,0,.75293.5127,1.10449,1.29688,1.10449.89648,0,1.64844-.62402,1.64844-1.80859Z"/>
      <path d="M52.83322,5.50661v1.77734c-1.84082-.12793-2.75293.68848-2.75293,2.97656v3.90625h-2.20898V5.65115h2.20898v1.55273l.67188-1.18457c.41602-.38379.97656-.57617,1.45605-.57617.25684,0,.43262.01562.625.06348Z"/>
      <path d="M58.43283,5.50661v1.77734c-1.84082-.12793-2.75293.68848-2.75293,2.97656v3.90625h-2.20898V5.65115h2.20898v1.55273l.67188-1.18457c.41602-.38379.97656-.57617,1.45605-.57617.25684,0,.43262.01562.625.06348Z"/>
      <path d="M66.69064,10.48513h-6.05078c.14355,1.79297.94434,2.35254,1.96875,2.35254.94434,0,1.63281-.52832,1.77637-1.44043h2.20898c-.43164,1.98535-2.03223,2.99316-4.0332,2.99316-2.33691,0-4.14551-1.45605-4.14551-4.44922,0-2.60938,1.71191-4.51465,4.32129-4.51465s3.98535,1.98535,3.98535,4.30664c0,.20801,0,.46387-.03125.75195ZM60.70334,9.0447h3.74609c-.14453-1.34473-.75293-2.06543-1.80859-2.06543-1.02441,0-1.74512.65625-1.9375,2.06543Z"/>
      <path d="M69.90353,11.38161c0,.33594,0,.55957.01562.78418.04883.43164.24023.57617.99316.52832v1.52051c-.43262.04785-.86523.06348-1.36133.06348-1.08789,0-1.77637-.39941-1.82422-1.50391-.03223-.38477-.03223-.78418-.03223-1.34473V2.40212h2.20898v8.97949Z"/>
      <path d="M41.65158,27.47146h-2.20801v-5.10645c0-1.15234,0-2.625.03223-3.77734-.27246,1.15234-.67285,2.625-1.02441,3.76172l-1.55273,5.12207h-2.40137l-1.58496-5.13867c-.33594-1.12012-.73633-2.59277-.99219-3.72949.03223,1.15234.03223,2.60938.03223,3.76172v5.10645h-2.20898v-11.04492h3.48926l2.49707,9.01172,2.49707-9.01172h3.4248v11.04492Z"/>
      <path d="M51.45822,23.21365c0,2.57715-1.58398,4.48145-4.41797,4.48145-2.83301,0-4.41699-1.9043-4.41699-4.48145,0-2.59277,1.58398-4.48242,4.41699-4.48242,2.83398,0,4.41797,1.88965,4.41797,4.48242ZM49.16916,23.21365c0-1.84082-.7998-2.92969-2.12891-2.92969-1.32812,0-2.12891,1.08887-2.12891,2.92969,0,1.82422.80078,2.92871,2.12891,2.92871,1.3291,0,2.12891-1.10449,2.12891-2.92871Z"/>
      <path d="M60.41818,22.6697v4.80176h-2.20898v-4.49805c0-.35254,0-.75195-.03223-1.18457-.06348-.89648-.55957-1.50488-1.63281-1.50488-1.07227,0-1.91992.92871-1.91992,3.29785v3.88965h-2.20898v-8.51562h2.20898v1.37695l.65625-1.00879c.60742-.43262,1.23242-.59277,2.04883-.59277,1.80859,0,2.84863.89648,3.02441,2.38574.04883.43164.06445.86426.06445,1.55273Z"/>
      <path d="M64.07932,24.87771v2.59375h-2.20898v-11.76465h2.20898v7.13867l3.4248-3.88965h2.65723l-3.77734,3.95312,3.8252,4.5625h-2.78516l-2.64062-3.36133-.7041.76758Z"/>
      <path d="M78.11252,23.78982h-6.0498c.14355,1.79297.94434,2.35254,1.96875,2.35254.94434,0,1.63281-.52832,1.77637-1.44043h2.20898c-.43164,1.98535-2.03223,2.99316-4.0332,2.99316-2.33691,0-4.14551-1.45605-4.14551-4.44922,0-2.60938,1.71191-4.51465,4.32129-4.51465s3.98535,1.98535,3.98535,4.30664c0,.20801,0,.46387-.03223.75195ZM72.12619,22.34939h3.74609c-.14453-1.34473-.75293-2.06543-1.80859-2.06543-1.02441,0-1.74512.65625-1.9375,2.06543Z"/>
      <path d="M83.51974,27.79177c-.89648,2.30469-1.8252,3.04102-3.55371,3.04102-.40039,0-.67188-.0166-.99219-.06445v-1.52051c.22363.03223.43164.03223.65625.03223.75195,0,1.24805-.28809,1.60059-1.13672l.1123-.27148-3.47363-8.91602h2.46484l2.11328,6.83496,2.08105-6.83496h2.41602l-3.4248,8.83594Z"/>
    </g>
    <path d="M.19063,9.19531l-.00002.00002C.06484,11.06634.02698,12.00351.00138,13.87761l.00012-.00006c8.134-3.57376,17.49919-3.57376,25.63324,0l.00012.00006c-.02559-1.8741-.06348-2.81126-.18921-4.68228l-.00002-.00002C17.23992,5.62736,8.39635,5.62736.19063,9.19531Z"/>
    <g>
      <path class="cls-1" d="M12.81857,23.02517c-4.13281,0-8.2207-.8457-12.15625-2.51465-.08984-1.40234-.12793-2.27246-.15039-3.58301,3.90234,1.60547,8.03809,2.41895,12.30664,2.41895,4.26758,0,8.40332-.81348,12.30566-2.41895-.02246,1.31055-.06055,2.18066-.15039,3.58301-3.93555,1.66895-8.02344,2.51465-12.15527,2.51465Z"/>
      <path d="M24.60884,17.67107c-.02185.83205-.05539,1.54575-.11461,2.49817-3.78505,1.5636-7.71013,2.35591-11.67612,2.35591s-7.89107-.79231-11.67612-2.35591c-.05923-.95267-.09276-1.66626-.11456-2.49815,3.7545,1.44463,7.71338,2.17592,11.79065,2.17592s8.03615-.73128,11.79076-2.17593M25.63623,16.16662l-.00014.00005c-4.06531,1.7869-8.44167,2.68034-12.81801,2.68034S4.06541,17.95356.00012,16.16666l-.00012-.00005c.02335,1.87413.0601,2.81133.18364,4.68245h.00002c4.10292,1.78406,8.36868,2.67609,12.63446,2.67609s8.53154-.89203,12.63448-2.67609h.00002c.12352-1.87112.16028-2.80832.18362-4.68245h0Z"/>
    </g>
    <path d="M.87684,2.66021h-.00002c-.26613,1.86003-.37415,2.79308-.54008,4.66179l.00012-.00006c8.19006-3.56346,16.77248-3.56345,24.96255,0l.00014.00006c-.16592-1.86871-.27396-2.80176-.5401-4.66179h-.00002C16.71889-.88671,8.91733-.88677.87684,2.66021Z"/>
    <path d="M24.75945,27.48886l.00002-.00002c.26613-1.86003.37415-2.79309.54007-4.66179l-.00014.00006c-8.19006,3.56343-16.77246,3.56343-24.96252,0l-.00012-.00006c.16594,1.8687.27396,2.80176.54007,4.66179l.00002.00002c8.0405,3.54698,15.84209,3.54698,23.88261,0Z"/>
    <path d="M22.94083,17.19759v4.61542c.84253-.28802,1.68121-.60278,2.51178-.96393.12354-1.87115.16028-2.80835.18365-4.6825l-.00018.00006c-.88403.38855-1.78503.72687-2.69525,1.03094Z"/>
  </g>
</svg>