<?xml version="1.0" encoding="UTF-8"?>
<svg id="Layer_2" data-name="Layer 2" xmlns="http://www.w3.org/2000/svg" viewBox="0 0 50.58527 50.58525">
  <defs>
    <style>
      .cls-1 {
        fill: #fc3;
      }
    </style>
  </defs>
  <g id="Layer_1-2" data-name="Layer 1">
    <g>
      <path class="cls-1" d="M25.29309,49.08537c-13.11914,0-23.79297-10.67383-23.79297-23.79297S12.17395,1.50041,25.29309,1.50041s23.79199,10.67285,23.79199,23.79199-10.67285,23.79297-23.79199,23.79297Z"/>
      <path d="M25.29263,3c12.29221,0,22.29263,10.00043,22.29263,22.29262s-10.00043,22.29263-22.29263,22.29263S3,37.58482,3,25.29262,13.00043,3,25.29263,3M25.29263,0C11.3239,0,0,11.3239,0,25.29262s11.3239,25.29263,25.29263,25.29263,25.29263-11.32388,25.29263-25.29263S39.26138,0,25.29263,0h0Z"/>
    </g>
    <path d="M12.66515,19.45153l-.00002.00002c-.12578,1.87102-.16364,2.80818-.18924,4.68228l.00012-.00006c8.134-3.57376,17.49919-3.57376,25.63324,0l.00012.00006c-.02559-1.8741-.06348-2.81126-.18921-4.68228l-.00002-.00002c-8.20572-3.56795-17.04929-3.56795-25.255,0Z"/>
    <path d="M13.35136,12.91643h-.00002c-.26613,1.86003-.37415,2.79308-.54008,4.66179l.00012-.00006c8.19006-3.56346,16.77248-3.56345,24.96255,0l.00014.00006c-.16592-1.86871-.27396-2.80176-.5401-4.66179h-.00002c-8.04054-3.54692-15.8421-3.54698-23.8826,0Z"/>
    <path d="M37.23397,37.74508l.00002-.00002c.26613-1.86003.37415-2.79309.54007-4.66179l-.00014.00006c-8.19006,3.56343-16.77246,3.56343-24.96252,0l-.00012-.00006c.16594,1.8687.27396,2.80176.54007,4.66179l.00002.00002c8.0405,3.54698,15.84209,3.54698,23.88261,0Z"/>
    <path d="M37.92712,31.10529h.00002c.12352-1.87112.16028-2.80832.18362-4.68245l-.00014.00005c-8.13063,3.57379-17.5054,3.57379-25.63597,0l-.00012-.00005c.02335,1.87413.0601,2.81133.18364,4.68245h.00002c8.20584,3.56812,17.06306,3.56812,25.26894,0Z"/>
  </g>
</svg>