<?xml version="1.0" encoding="UTF-8"?>
<svg id="Layer_2" data-name="Layer 2" xmlns="http://www.w3.org/2000/svg" viewBox="0 0 25.63626 30.14909">
  <defs>
    <style>
      .cls-1 {
        fill: #fc3;
      }
    </style>
  </defs>
  <g id="Layer_1-2" data-name="Layer 1">
    <path d="M.19063,9.19531l-.00002.00002C.06484,11.06634.02698,12.00351.00138,13.87761l.00012-.00006c8.134-3.57376,17.49919-3.57376,25.63324,0l.00012.00006c-.02559-1.8741-.06348-2.81126-.18921-4.68228l-.00002-.00002C17.23992,5.62736,8.39635,5.62736.19063,9.19531Z"/>
    <g>
      <path class="cls-1" d="M12.81857,23.02517c-4.13281,0-8.2207-.8457-12.15625-2.51465-.08984-1.40234-.12793-2.27246-.15039-3.58301,3.90234,1.60547,8.03809,2.41895,12.30664,2.41895,4.26758,0,8.40332-.81348,12.30566-2.41895-.02246,1.31055-.06055,2.18066-.15039,3.58301-3.93555,1.66895-8.02344,2.51465-12.15527,2.51465Z"/>
      <path d="M24.60884,17.67107c-.02185.83205-.05539,1.54575-.11461,2.49817-3.78505,1.5636-7.71013,2.35591-11.67612,2.35591s-7.89107-.79231-11.67612-2.35591c-.05923-.95267-.09276-1.66626-.11456-2.49815,3.7545,1.44463,7.71338,2.17592,11.79065,2.17592s8.03615-.73128,11.79076-2.17593M25.63623,16.16662l-.00014.00005c-4.06531,1.7869-8.44167,2.68034-12.81801,2.68034S4.06541,17.95356.00012,16.16666l-.00012-.00005c.02335,1.87413.0601,2.81133.18364,4.68245h.00002c4.10292,1.78406,8.36868,2.67609,12.63446,2.67609s8.53154-.89203,12.63448-2.67609h.00002c.12352-1.87112.16028-2.80832.18362-4.68245h0Z"/>
    </g>
    <path d="M.87684,2.66021h-.00002c-.26613,1.86003-.37415,2.79308-.54008,4.66179l.00012-.00006c8.19006-3.56346,16.77248-3.56345,24.96255,0l.00014.00006c-.16592-1.86871-.27396-2.80176-.5401-4.66179h-.00002C16.71889-.88671,8.91733-.88677.87684,2.66021Z"/>
    <path d="M24.75945,27.48886l.00002-.00002c.26613-1.86003.37415-2.79309.54007-4.66179l-.00014.00006c-8.19006,3.56343-16.77246,3.56343-24.96252,0l-.00012-.00006c.16594,1.8687.27396,2.80176.54007,4.66179l.00002.00002c8.0405,3.54698,15.84209,3.54698,23.88261,0Z"/>
    <path d="M22.94083,17.19759v4.61542c.84253-.28802,1.68121-.60278,2.51178-.96393.12354-1.87115.16028-2.80835.18365-4.6825l-.00018.00006c-.88403.38855-1.78503.72687-2.69525,1.03094Z"/>
  </g>
</svg>