<?xml version="1.0" encoding="UTF-8"?>
<svg id="Layer_2" data-name="Layer 2" xmlns="http://www.w3.org/2000/svg" viewBox="0 0 25.63623 30.14909">
  <g id="Layer_1-2" data-name="Layer 1">
    <path d="M.19063,9.19531l-.00002.00002C.06483,11.06634.02698,12.00351.00137,13.87761l.00012-.00006c8.134-3.57376,17.49919-3.57376,25.63324,0l.00012.00006c-.02559-1.8741-.06348-2.81126-.18921-4.68228l-.00002-.00002C17.23991,5.62736,8.39635,5.62736.19063,9.19531Z"/>
    <path d="M25.45259,20.84907h.00002c.12352-1.87112.16028-2.80832.18362-4.68245l-.00014.00005C17.50546,19.74046,8.13069,19.74046.00012,16.16667l-.00012-.00005c.02335,1.87413.0601,2.81133.18364,4.68245h.00002c8.20584,3.56812,17.06306,3.56812,25.26894,0Z"/>
    <path d="M.87683,2.66021h-.00002c-.26613,1.86003-.37415,2.79308-.54008,4.66179l.00012-.00006c8.19006-3.56346,16.77248-3.56345,24.96255,0l.00014.00006c-.16592-1.86871-.27396-2.80176-.5401-4.66179h-.00002C16.71889-.88671,8.91733-.88677.87683,2.66021Z"/>
    <path d="M24.75945,27.48886l.00002-.00002c.26613-1.86003.37415-2.79309.54007-4.66179l-.00014.00006c-8.19006,3.56343-16.77246,3.56343-24.96252,0l-.00012-.00006c.16594,1.8687.27396,2.80176.54007,4.66179l.00002.00002c8.0405,3.54698,15.84209,3.54698,23.88261,0Z"/>
  </g>
</svg>